<svg width="24" height="24" viewBox="0 0 24 24" fill="none" xmlns="http://www.w3.org/2000/svg">
<g clip-path="url(#clip0_95_11)">
<path d="M12 6L4 10L12 14L20 10L12 6Z" fill="#86503A"/>
<path d="M8.05524 1.94476C10.2339 -0.233872 13.7661 -0.233872 15.9448 1.94476V1.94476C18.1234 4.12339 18.1234 7.65564 15.9448 9.83427L12.4383 13.3407C12.1962 13.5828 11.8038 13.5828 11.5617 13.3407L8.05524 9.83427C5.87661 7.65564 5.87661 4.12339 8.05524 1.94476V1.94476Z" fill="#E64E25"/>
<path fill-rule="evenodd" clip-rule="evenodd" d="M15 6C15 6.79565 14.6839 7.55871 14.1213 8.12132C13.5587 8.68393 12.7957 9 12 9C11.2044 9 10.4413 8.68393 9.87868 8.12132C9.31607 7.55871 9 6.79565 9 6C9 5.20435 9.31607 4.44129 9.87868 3.87868C10.4413 3.31607 11.2044 3 12 3C12.7957 3 13.5587 3.31607 14.1213 3.87868C14.6839 4.44129 15 5.20435 15 6ZM13.5 6C13.5 6.39782 13.342 6.77936 13.0607 7.06066C12.7794 7.34196 12.3978 7.5 12 7.5C11.6022 7.5 11.2206 7.34196 10.9393 7.06066C10.658 6.77936 10.5 6.39782 10.5 6C10.5 5.60218 10.658 5.22064 10.9393 4.93934C11.2206 4.65804 11.6022 4.5 12 4.5C12.3978 4.5 12.7794 4.65804 13.0607 4.93934C13.342 5.22064 13.5 5.60218 13.5 6Z" fill="white"/>
<path d="M4 20L12 24V14L4 10V20Z" fill="#BC8D69"/>
<path d="M8 21L11 22.5V20.5L8 19V21Z" fill="#FFEDDF"/>
<path d="M20 20V10L12 14V24L20 20Z" fill="#A67557"/>
<path fill-rule="evenodd" clip-rule="evenodd" d="M22.4 14L22.4444 14.074C22.7441 14.5735 22.5551 15.2224 22.0341 15.4829L15.8283 18.5859C15.3609 18.8196 14.7924 18.654 14.5236 18.2059L14 17.3333L12.5556 14.926C12.5555 14.9259 12.5554 14.9257 12.5554 14.9256L12 14L12.9655 13.5173C12.9656 13.5172 12.9657 13.5171 12.9659 13.5171L19.1717 10.4141L20 10L20.476 10.7933C20.4761 10.7936 20.4763 10.7938 20.4764 10.7941L22.4 14Z" fill="#DCB285"/>
<path d="M1.96587 15.4829L8.17173 18.5859C8.6391 18.8196 9.2076 18.654 9.47644 18.2059L11.4444 14.926C11.7441 14.4265 11.5551 13.7776 11.0341 13.5171L4.82827 10.4141C4.3609 10.1804 3.7924 10.346 3.52356 10.7941L1.55559 14.074C1.25589 14.5735 1.44486 15.2224 1.96587 15.4829Z" fill="#DCB285"/>
<path fill-rule="evenodd" clip-rule="evenodd" d="M2.19995 13H9.99995V17.3333L12 14L9.99995 13L3.99995 10L2.19995 13Z" fill="#DCB285"/>
</g>
<defs>
<clipPath id="clip0_95_11">
<rect width="24" height="24" fill="white"/>
</clipPath>
</defs>
</svg>
